<svg width="32" height="32" viewBox="0 0 128 128" xmlns="http://www.w3.org/2000/svg">
  <defs>
    <linearGradient id="bg32" x1="0%" y1="0%" x2="100%" y2="100%">
      <stop offset="0%" style="stop-color:#667EEA"/>
      <stop offset="100%" style="stop-color:#764BA2"/>
    </linearGradient>
    <linearGradient id="icon32" x1="0%" y1="0%" x2="100%" y2="100%">
      <stop offset="0%" style="stop-color:#FFFFFF"/>
      <stop offset="100%" style="stop-color:#E0E7FF"/>
    </linearGradient>
  </defs>
  
  <circle cx="64" cy="64" r="60" fill="url(#bg32)" stroke="#4F46E5" stroke-width="2"/>
  <circle cx="64" cy="64" r="25" fill="none" stroke="url(#icon32)" stroke-width="3"/>
  <circle cx="64" cy="64" r="15" fill="none" stroke="url(#icon32)" stroke-width="2"/>
  <circle cx="64" cy="64" r="5" fill="url(#icon32)"/>
  
  <g stroke="url(#icon32)" stroke-width="2" fill="none" opacity="0.7">
    <path d="M64 39 L75 30 M64 39 L53 30"/>
    <path d="M89 64 L98 53 M89 64 L98 75"/>
    <path d="M64 89 L75 98 M64 89 L53 98"/>
    <path d="M39 64 L30 53 M39 64 L30 75"/>
  </g>
  
  <circle cx="25" cy="25" r="3" fill="url(#icon32)" opacity="0.8"/>
  <circle cx="103" cy="25" r="3" fill="url(#icon32)" opacity="0.8"/>
  <circle cx="25" cy="103" r="3" fill="url(#icon32)" opacity="0.8"/>
  <circle cx="103" cy="103" r="3" fill="url(#icon32)" opacity="0.8"/>
  
  <text x="64" y="72" text-anchor="middle" fill="url(#icon32)" font-family="Arial, sans-serif" font-size="16" font-weight="bold">Q</text>
</svg>